<?xml version="1.0" encoding="UTF-8"?>
<svg width="120px" height="76px" viewBox="0 0 120 76" version="1.1" xmlns="http://www.w3.org/2000/svg" xmlns:xlink="http://www.w3.org/1999/xlink">
    <title>IC 1</title>
    <g id="Landing-Page" stroke="none" stroke-width="1" fill="none" fill-rule="evenodd" stroke-linecap="round">
        <g id="Assist-AI-Landing-" transform="translate(-199.000000, -2494.000000)" stroke="#FF6200" stroke-width="2">
            <g id="IC-1" transform="translate(200.000000, 2495.000000)">
                <rect id="Rectangle" x="26.2140264" y="14.6414286" width="65.5606786" height="42.2857143"></rect>
                <polygon id="Rectangle-Copy-19" points="26.2140264 57.35 91.774705 57.35 98.7492453 74 19.2394861 74"></polygon>
                <polyline id="Path-2" points="74.2091086 26.085 92.3886103 26.085 107.807653 10.6469619"></polyline>
                <ellipse id="Oval" cx="112.071275" cy="5.94642857" rx="5.92872478" ry="5.94642857"></ellipse>
                <polyline id="Path-2-Copy" transform="translate(91.008381, 50.652448) scale(1, -1) translate(-91.008381, -50.652448) " points="74.2091086 58.5963243 92.3886103 58.5963243 107.807653 42.7085714"></polyline>
                <ellipse id="Oval-Copy-2" transform="translate(112.071275, 62.847143) scale(1, -1) translate(-112.071275, -62.847143) " cx="112.071275" cy="62.8471429" rx="5.92872478" ry="5.94642857"></ellipse>
                <polyline id="Path-2" transform="translate(26.991619, 18.365981) scale(-1, 1) translate(-26.991619, -18.365981) " points="10.1923473 26.085 28.3718491 26.085 43.7908914 10.6469619"></polyline>
                <ellipse id="Oval" transform="translate(5.928725, 5.946429) scale(-1, 1) translate(-5.928725, -5.946429) " cx="5.92872478" cy="5.94642857" rx="5.92872478" ry="5.94642857"></ellipse>
                <polyline id="Path-2-Copy" transform="translate(26.991619, 50.652448) scale(-1, -1) translate(-26.991619, -50.652448) " points="10.1923473 58.5963243 28.3718491 58.5963243 43.7908914 42.7085714"></polyline>
                <ellipse id="Oval-Copy-2" transform="translate(5.928725, 62.847143) scale(-1, -1) translate(-5.928725, -62.847143) " cx="5.92872478" cy="62.8471429" rx="5.92872478" ry="5.94642857"></ellipse>
            </g>
        </g>
    </g>
</svg>